<svg xmlns="http://www.w3.org/2000/svg" xmlns:xlink="http://www.w3.org/1999/xlink" width="500" zoomAndPan="magnify" viewBox="0 0 375 374.999991" height="500" preserveAspectRatio="xMidYMid meet" version="1.0"><defs><clipPath id="68c0b4cfd6"><path d="M 77 7 L 138 7 L 138 46 L 77 46 Z M 77 7 " clip-rule="nonzero"/></clipPath><clipPath id="ce5d1cb7fa"><path d="M 80.898438 76.632812 L 61.699219 -3.332031 L 130.902344 -19.945312 L 150.097656 60.019531 Z M 80.898438 76.632812 " clip-rule="nonzero"/></clipPath><clipPath id="44bacd13f7"><path d="M 121.027344 255.027344 L 59.007812 -3.320312 L 434.226562 -93.394531 L 496.246094 164.953125 Z M 121.027344 255.027344 " clip-rule="nonzero"/></clipPath><clipPath id="e73cce119c"><path d="M 44 49 L 150 49 L 150 118 L 44 118 Z M 44 49 " clip-rule="nonzero"/></clipPath><clipPath id="d7ca8a13af"><path d="M 27.566406 52.339844 L 154.070312 17.308594 L 183.191406 122.472656 L 56.691406 157.503906 Z M 27.566406 52.339844 " clip-rule="nonzero"/></clipPath><clipPath id="c44f39b779"><path d="M -227.089844 -8.960938 L 120.40625 -105.195312 L 260.117188 399.285156 L -87.378906 495.519531 Z M -227.089844 -8.960938 " clip-rule="nonzero"/></clipPath><clipPath id="a5e712a668"><path d="M 20 123 L 192 123 L 192 229 L 20 229 Z M 20 123 " clip-rule="nonzero"/></clipPath><clipPath id="0a3a3e72ac"><path d="M 142.9375 28.144531 L 249.523438 205.796875 L 67.804688 314.824219 L -38.78125 137.171875 Z M 142.9375 28.144531 " clip-rule="nonzero"/></clipPath><clipPath id="38d3a9b0b4"><path d="M 634.976562 -581.976562 L 1026.335938 70.316406 L 79.761719 638.230469 L -311.597656 -14.0625 Z M 634.976562 -581.976562 " clip-rule="nonzero"/></clipPath><clipPath id="e337238f6b"><rect x="0" width="210" y="0" height="277"/></clipPath></defs><g transform="matrix(1, 0, 0, 1, 82, 61)"><g clip-path="url(#e337238f6b)"><g clip-path="url(#68c0b4cfd6)"><g clip-path="url(#ce5d1cb7fa)"><g clip-path="url(#44bacd13f7)"><path fill="#bb9d8c" d="M 110.757812 7.914062 C 141.503906 4.9375 147.535156 38.105469 117.253906 43.683594 C 112.484375 44.558594 107.808594 45.164062 103.316406 45.40625 C 102.832031 45.433594 102.339844 45.457031 101.855469 45.476562 C 71.335938 46.769531 68.613281 13.617188 98.875 9.335938 C 102.726562 8.789062 106.695312 8.308594 110.757812 7.914062 " fill-opacity="1" fill-rule="nonzero"/></g></g></g><g clip-path="url(#e73cce119c)"><g clip-path="url(#d7ca8a13af)"><g clip-path="url(#c44f39b779)"><path fill="#c68c6d" d="M 81.597656 113.808594 C 27.605469 103.828125 33.558594 44.191406 88.039062 49.507812 C 96.613281 50.347656 104.90625 51.605469 112.699219 53.386719 C 113.542969 53.582031 114.386719 53.78125 115.230469 53.984375 C 168.019531 66.742188 156.410156 124.734375 102.605469 117.210938 C 95.757812 116.257812 88.742188 115.125 81.597656 113.808594 " fill-opacity="1" fill-rule="nonzero"/></g></g></g><g clip-path="url(#a5e712a668)"><g clip-path="url(#0a3a3e72ac)"><g clip-path="url(#38d3a9b0b4)"><path fill="#d6ab93" d="M 123.671875 124.335938 C 212.050781 128.628906 215.394531 225.128906 127.242188 228.402344 C 113.375 228.914062 99.867188 228.679688 87.039062 227.519531 C 85.640625 227.398438 84.25 227.253906 82.867188 227.121094 C -4.183594 218.121094 1.859375 123.023438 89.390625 123.433594 C 100.542969 123.488281 111.984375 123.761719 123.671875 124.335938 " fill-opacity="1" fill-rule="nonzero"/></g></g></g></g></g></svg>